<svg width="30" height="31" viewBox="0 0 30 31" fill="none" xmlns="http://www.w3.org/2000/svg">
<g clip-path="url(#clip0_2363_7693)">
<path d="M13.7857 1.30224L1.09346 13.9944C0.489561 14.5983 0.489561 15.5775 1.09346 16.1814L13.7857 28.8735C14.3896 29.4774 15.3687 29.4774 15.9726 28.8735L28.6648 16.1814C29.2687 15.5775 29.2687 14.5983 28.6648 13.9944L15.9726 1.30224C15.3687 0.698335 14.3896 0.698335 13.7857 1.30224Z" fill="#E6EBEF"/>
<path d="M21.001 8.96646C17.6202 5.58569 12.1389 5.58569 8.75815 8.96646C5.37738 12.3472 5.37738 17.8285 8.75815 21.2093C12.1389 24.5901 17.6202 24.5901 21.001 21.2093C24.3818 17.8285 24.3818 12.3472 21.001 8.96646Z" fill="#5E5E65"/>
<path d="M19.3493 9.77344H10.4925C9.9801 9.77344 9.5647 10.1888 9.5647 10.7013V19.558C9.5647 20.0704 9.9801 20.4858 10.4925 20.4858H19.3493C19.8617 20.4858 20.2771 20.0704 20.2771 19.558V10.7013C20.2771 10.1888 19.8617 9.77344 19.3493 9.77344Z" fill="#E6EBEF"/>
<path d="M17.749 12.2184C16.1642 10.6337 13.5948 10.6337 12.0101 12.2184C10.4253 13.8032 10.4253 16.3726 12.0101 17.9573C13.5948 19.5421 16.1642 19.5421 17.749 17.9573C19.3337 16.3726 19.3337 13.8032 17.749 12.2184Z" fill="#5E5E65"/>
<path d="M14.4832 13.2707L13.0624 14.6915C12.8208 14.9331 12.8208 15.3247 13.0624 15.5663L14.4832 16.9871C14.7247 17.2286 15.1164 17.2286 15.3579 16.9871L16.7787 15.5663C17.0203 15.3247 17.0203 14.9331 16.7787 14.6915L15.3579 13.2707C15.1164 13.0292 14.7247 13.0292 14.4832 13.2707Z" fill="#E6EBEF"/>
</g>
<defs>
<clipPath id="clip0_2363_7693">
<rect width="30" height="30" fill="white" transform="translate(0 0.208984)"/>
</clipPath>
</defs>
</svg>
