<svg width="140" height="24" viewBox="0 0 140 24" fill="none" xmlns="http://www.w3.org/2000/svg">
<g clip-path="url(#clip0_2202_8132)">
<path d="M0.10498 23.1392V0.0537109H13.3121C15.5533 0.0537109 17.3409 0.615465 18.5949 1.76573C19.8756 2.88924 20.5159 4.4675 20.5159 6.47377C20.5159 8.15904 20.009 9.5768 19.0218 10.7806C18.0346 11.9843 16.7005 12.7066 15.073 13.0008L20.8361 23.1392H17.6611L11.898 13.0543H2.95984V23.1392H0.10498ZM2.95984 10.3526H13.0986C14.5394 10.3526 15.6333 10.0316 16.3804 9.38955C17.1274 8.74754 17.501 7.81128 17.501 6.58077C17.501 5.37701 17.1274 4.414 16.3804 3.74524C15.6333 3.07649 14.5927 2.72874 13.232 2.72874H2.95984V10.3526Z" fill="#40C2F6"/>
<path d="M25.2925 23.1403V5.29785H41.9948V7.91938H28.094V12.3599H37.2189V14.9279H28.094V20.5723H42.7685V23.1403H25.2925Z" fill="#40C2F6"/>
<path d="M56.2941 23.1392H54.5065L43.4072 0.0537109H46.5022L55.387 18.5381L64.2717 0.0537109H67.4468L56.2941 23.1392Z" fill="white"/>
<path d="M68.6741 23.1401V5.24414H71.5023V23.1401H68.6741Z" fill="white"/>
<path d="M75.3442 23.1387L86.8704 7.89105H76.3581V5.26953H91.9932L80.3603 20.5439H91.8864V23.1119H75.3442V23.1387Z" fill="white"/>
<path d="M105.654 23.7015C102.479 23.7015 99.8911 22.792 97.8366 20.9997C95.7822 19.2075 94.7683 16.9337 94.7683 14.2319C94.7683 11.5034 95.7822 9.25636 97.8099 7.46409C99.8377 5.69857 102.452 4.78906 105.627 4.78906C108.829 4.78906 111.471 5.67182 113.498 7.43734C115.526 9.20285 116.54 11.4766 116.54 14.2052C116.54 16.9337 115.526 19.2075 113.472 20.9997C111.471 22.8187 108.856 23.7015 105.654 23.7015ZM105.654 21.1067C108.029 21.1067 109.976 20.4647 111.471 19.1807C112.965 17.8967 113.712 16.2649 113.712 14.2587C113.712 12.2791 112.965 10.6474 111.444 9.33661C109.923 8.05259 108.002 7.38384 105.627 7.38384C103.253 7.38384 101.332 8.02584 99.8377 9.30986C98.3436 10.5939 97.5965 12.2524 97.5965 14.2319C97.5965 16.2114 98.3436 17.8699 99.8377 19.154C101.359 20.4647 103.28 21.1067 105.654 21.1067Z" fill="white"/>
<path d="M123.933 15.3542V23.1385H121.132V5.34961H133.405C135.219 5.34961 136.66 5.77761 137.674 6.66037C138.714 7.54313 139.221 8.74689 139.221 10.3252C139.221 11.5824 138.821 12.6792 137.994 13.6154C137.194 14.5517 136.126 15.1135 134.819 15.3275L139.755 23.1653H136.74L131.697 15.381H123.933V15.3542ZM123.933 12.7327H133.405C134.365 12.7327 135.086 12.5187 135.593 12.1174C136.1 11.6894 136.366 11.1009 136.366 10.3252C136.366 9.5494 136.1 8.96089 135.593 8.53289C135.086 8.13163 134.365 7.91764 133.405 7.91764H123.933V12.7327Z" fill="white"/>
</g>
<defs>
<clipPath id="clip0_2202_8132">
<rect width="140" height="24" fill="white"/>
</clipPath>
</defs>
</svg>
