<svg width="140" height="24" viewBox="0 0 140 24" fill="none" xmlns="http://www.w3.org/2000/svg">
<g clip-path="url(#clip0_2041_3618)">
<path d="M0.104919 23.1394V0.053978H13.312C15.5532 0.053978 17.3408 0.615732 18.5948 1.76599C19.8755 2.8895 20.5159 4.46777 20.5159 6.47404C20.5159 8.15931 20.0089 9.57706 19.0217 10.7808C18.0345 11.9846 16.7005 12.7068 15.0729 13.0011L20.836 23.1394H17.661L11.8979 13.0546H2.95978V23.1394H0.104919ZM2.95978 10.3528H13.0985C14.5393 10.3528 15.6332 10.0318 16.3803 9.38982C17.1274 8.74781 17.5009 7.81155 17.5009 6.58104C17.5009 5.37728 17.1274 4.41427 16.3803 3.74551C15.6332 3.07675 14.5927 2.729 13.232 2.729H2.95978V10.3528Z" fill="#40C2F6"/>
<path d="M25.2924 23.1407V5.29829H41.9946V7.91982H28.0939V12.3604H37.2187V14.9284H28.0939V20.5727H42.7684V23.1407H25.2924Z" fill="#40C2F6"/>
<path d="M56.2941 23.1394H54.5065L43.4072 0.053978H46.5022L55.387 18.5384L64.2717 0.053978H67.4468L56.2941 23.1394Z" fill="#5E5E65"/>
<path d="M68.674 23.1402V5.24432H71.5021V23.1402H68.674Z" fill="#5E5E65"/>
<path d="M75.3442 23.1391L86.8704 7.89141H76.3581V5.26989H91.9931L80.3602 20.5443H91.8864V23.1123H75.3442V23.1391Z" fill="#5E5E65"/>
<path d="M105.654 23.7022C102.479 23.7022 99.8909 22.7927 97.8364 21.0004C95.782 19.2082 94.7681 16.9344 94.7681 14.2326C94.7681 11.5041 95.782 9.25707 97.8098 7.4648C99.8375 5.69928 102.452 4.78977 105.627 4.78977C108.829 4.78977 111.47 5.67253 113.498 7.43805C115.526 9.20356 116.54 11.4773 116.54 14.2059C116.54 16.9344 115.526 19.2082 113.471 21.0004C111.47 22.8195 108.856 23.7022 105.654 23.7022ZM105.654 21.1074C108.029 21.1074 109.976 20.4654 111.47 19.1814C112.965 17.8974 113.712 16.2656 113.712 14.2594C113.712 12.2798 112.965 10.6481 111.444 9.33732C109.923 8.0533 108.002 7.38455 105.627 7.38455C103.253 7.38455 101.332 8.02655 99.8375 9.31056C98.3434 10.5946 97.5963 12.2531 97.5963 14.2326C97.5963 16.2121 98.3434 17.8707 99.8375 19.1547C101.358 20.4654 103.279 21.1074 105.654 21.1074Z" fill="#5E5E65"/>
<path d="M123.933 15.354V23.1384H121.131V5.34943H133.405C135.219 5.34943 136.66 5.77744 137.674 6.66019C138.714 7.54295 139.221 8.74672 139.221 10.325C139.221 11.5822 138.821 12.679 137.994 13.6153C137.193 14.5515 136.126 15.1133 134.819 15.3273L139.755 23.1651H136.74L131.697 15.3808H123.933V15.354ZM123.933 12.7325H133.405C134.365 12.7325 135.086 12.5185 135.593 12.1172C136.099 11.6892 136.366 11.1007 136.366 10.325C136.366 9.54923 136.099 8.96072 135.593 8.53271C135.086 8.13146 134.365 7.91746 133.405 7.91746H123.933V12.7325Z" fill="#5E5E65"/>
</g>
<defs>
<clipPath id="clip0_2041_3618">
<rect width="140" height="24" fill="white"/>
</clipPath>
</defs>
</svg>
