<svg width="68" height="68" viewBox="0 0 68 68" fill="none" xmlns="http://www.w3.org/2000/svg">
<path d="M63.8389 10.2223L51.8192 60.4866C51.7408 60.8144 51.3448 60.9451 51.0867 60.7283L23.7691 37.7815C23.5404 37.5894 23.5568 37.2325 23.8021 37.0621L63.1394 9.74452C63.4813 9.50706 63.9357 9.81742 63.8389 10.2223Z" stroke="white" stroke-width="2.26667"/>
<path d="M64.1151 9.06689L6.31509 30.6002C4.04844 31.7336 4.27511 33.0936 5.18177 34.0002C6.08844 34.9069 17.6484 36.6447 23.3151 37.4002" stroke="white" stroke-width="2.26667" stroke-linecap="round"/>
<path d="M23.3152 37.3999C23.3152 37.3999 23.3152 49.8666 23.3152 55.5332C23.3152 56.9328 24.4485 58.9332 26.7152 57.7999C28.9819 56.6666 35.7819 48.7332 35.7819 48.7332" stroke="white" stroke-width="2.26667" stroke-linecap="round"/>
</svg>
