<svg width="217" height="216" viewBox="0 0 217 216" fill="none" xmlns="http://www.w3.org/2000/svg">
<g clip-path="url(#clip0_2210_8437)">
<path d="M108.5 1.02051C167.487 1.02055 215.486 49.007 215.486 108C215.486 166.993 167.487 214.979 108.5 214.979C49.5135 214.979 1.51367 166.993 1.51367 108C1.51368 49.007 49.5135 1.02051 108.5 1.02051ZM108.5 5.72949C52.1085 5.72949 6.23633 51.6088 6.23633 108C6.23633 164.391 52.1085 210.271 108.5 210.271C164.891 210.27 210.764 164.391 210.764 108C210.764 51.6088 164.891 5.72953 108.5 5.72949Z" fill="white" stroke="#B5B5C1" stroke-width="2.5"/>
<mask id="path-2-inside-1_2210_8437" fill="white">
<path d="M111.983 41.3571C112.973 41.3571 113.922 40.9638 114.622 40.2638C115.322 39.5638 115.715 38.6143 115.715 37.6244V24.1244C115.715 23.1344 115.322 22.1849 114.622 21.4849C113.922 20.7849 112.973 20.3916 111.983 20.3916C110.993 20.3916 110.043 20.7849 109.343 21.4849C108.643 22.1849 108.25 23.1344 108.25 24.1244V37.6244C108.25 39.6899 109.924 41.3571 111.983 41.3571ZM37.7328 101.392H24.2328C23.2428 101.392 22.2933 101.785 21.5933 102.485C20.8933 103.185 20.5 104.134 20.5 105.124C20.5 106.114 20.8933 107.064 21.5933 107.764C22.2933 108.464 23.2428 108.857 24.2328 108.857H37.7328C38.2229 108.857 38.7083 108.761 39.1612 108.573C39.6141 108.385 40.0256 108.11 40.3722 107.764C40.7188 107.417 40.9938 107.006 41.1814 106.553C41.3689 106.1 41.4655 105.615 41.4655 105.124C41.4655 104.634 41.3689 104.149 41.1814 103.696C40.9938 103.243 40.7188 102.832 40.3722 102.485C40.0256 102.138 39.6141 101.863 39.1612 101.676C38.7083 101.488 38.2229 101.392 37.7328 101.392ZM175.75 105.124C175.75 107.19 177.424 108.857 179.483 108.857H192.983C193.473 108.857 193.958 108.761 194.411 108.573C194.864 108.385 195.276 108.11 195.622 107.764C195.969 107.417 196.244 107.006 196.431 106.553C196.619 106.1 196.715 105.615 196.715 105.124C196.715 104.634 196.619 104.149 196.431 103.696C196.244 103.243 195.969 102.832 195.622 102.485C195.276 102.138 194.864 101.863 194.411 101.676C193.958 101.488 193.473 101.392 192.983 101.392H179.483C178.493 101.392 177.543 101.785 176.843 102.485C176.143 103.185 175.75 104.134 175.75 105.124ZM58.489 68.8634C59.2273 68.8652 59.9494 68.6476 60.5639 68.2383C61.1783 67.829 61.6573 67.2464 61.94 66.5645C62.2228 65.8825 62.2966 65.1319 62.1521 64.4079C62.0075 63.6839 61.6512 63.0192 61.1283 62.4981L50.497 51.8601C50.1509 51.514 49.7399 51.2394 49.2877 51.052C48.8354 50.8647 48.3507 50.7683 47.8611 50.7683C47.3716 50.7683 46.8869 50.8647 46.4346 51.052C45.9823 51.2394 45.5714 51.514 45.2253 51.8601C44.8791 52.2063 44.6045 52.6172 44.4172 53.0695C44.2299 53.5217 44.1334 54.0064 44.1334 54.496C44.1334 54.9855 44.2299 55.4702 44.4172 55.9225C44.6045 56.3748 44.8791 56.7857 45.2253 57.1319L55.8565 67.7631C56.2011 68.111 56.611 68.3874 57.0628 68.5762C57.5146 68.765 57.9993 68.8626 58.489 68.8634ZM161.872 142.985C161.173 142.286 160.225 141.893 159.236 141.893C158.247 141.893 157.299 142.286 156.6 142.985C155.901 143.684 155.508 144.632 155.508 145.621C155.508 146.61 155.901 147.558 156.6 148.257L166.725 158.382C167.071 158.731 167.482 159.008 167.935 159.197C168.388 159.386 168.874 159.483 169.365 159.483C169.855 159.483 170.341 159.386 170.794 159.197C171.247 159.008 171.659 158.731 172.004 158.382C172.352 158.037 172.628 157.626 172.816 157.174C173.005 156.721 173.102 156.236 173.102 155.746C173.102 155.256 173.005 154.771 172.816 154.318C172.628 153.866 172.352 153.455 172.004 153.11L161.872 142.985ZM168.622 53.7636C168.968 53.4174 169.243 53.0065 169.43 52.5543C169.617 52.102 169.714 51.6173 169.714 51.1277C169.714 50.6382 169.617 50.1535 169.43 49.7012C169.243 49.2489 168.968 48.838 168.622 48.4919C168.276 48.1457 167.865 47.8711 167.413 47.6838C166.96 47.4965 166.476 47.4 165.986 47.4C165.497 47.4 165.012 47.4965 164.56 47.6838C164.107 47.8711 163.696 48.1457 163.35 48.4919L152.719 59.1231C152.373 59.4697 152.098 59.8811 151.911 60.3337C151.724 60.7864 151.628 61.2715 151.628 61.7614C151.628 62.2512 151.725 62.7362 151.913 63.1886C152.101 63.6411 152.376 64.0521 152.722 64.3982C153.069 64.7444 153.48 65.0189 153.933 65.206C154.386 65.3932 154.871 65.4894 155.361 65.4891C155.85 65.4887 156.335 65.3919 156.788 65.2042C157.24 65.0165 157.651 64.7414 157.997 64.3948L168.622 53.7636ZM58.7185 146.36L48.5935 156.485C48.2474 156.832 47.9729 157.243 47.7857 157.696C47.5985 158.148 47.5024 158.634 47.5027 159.123C47.503 159.613 47.5998 160.098 47.7875 160.551C47.9753 161.003 48.2503 161.414 48.5969 161.76C48.9435 162.106 49.3548 162.381 49.8075 162.568C50.2602 162.755 50.7453 162.851 51.2351 162.851C51.725 162.851 52.21 162.754 52.6624 162.566C53.1148 162.378 53.5259 162.103 53.872 161.757L63.997 151.632C64.3432 151.285 64.6176 150.874 64.8048 150.421C64.992 149.969 65.0881 149.483 65.0878 148.994C65.0875 148.504 64.9907 148.019 64.803 147.566C64.6152 147.114 64.3402 146.703 63.9936 146.357C63.647 146.011 63.2357 145.736 62.783 145.549C62.3303 145.362 61.8452 145.266 61.3554 145.266C60.8655 145.266 60.3805 145.363 59.9281 145.551C59.4757 145.738 59.0647 146.014 58.7185 146.36ZM132.233 162.499H84.9827C78.982 162.27 74.6215 166.624 74.6215 172.624V179.084C74.6215 185.146 79.171 189.904 84.9827 189.499H132.233C138.038 189.904 142.594 185.146 142.594 179.084V172.624C142.594 166.624 138.234 162.27 132.233 162.499ZM108.608 126.502C113.414 126.502 117.936 124.632 121.332 121.23C124.261 118.295 126.089 114.44 126.507 110.315C126.814 107.278 126.344 104.231 125.165 101.454C124.423 99.7063 124.59 97.6203 125.932 96.2779L141.534 80.6758C142.211 79.9991 142.591 79.0813 142.591 78.1243C142.591 77.1674 142.211 76.2495 141.534 75.5728C140.858 74.8961 139.94 74.516 138.983 74.516C138.026 74.516 137.108 74.8961 136.431 75.5728L120.777 91.2276C119.449 92.5552 117.39 92.7347 115.65 92.0289C109.088 89.3668 101.034 90.6135 95.884 95.7689C93.3729 98.2886 91.664 101.495 90.9727 104.985C90.2814 108.474 90.6387 112.091 91.9995 115.377C93.3603 118.664 95.6636 121.475 98.6192 123.454C101.575 125.434 105.05 126.494 108.608 126.502ZM102.249 102.141C103.944 100.44 106.205 99.5016 108.608 99.5016C111.011 99.5016 113.272 100.44 114.973 102.141C118.483 105.651 118.483 111.355 114.973 114.865C111.578 118.267 105.651 118.267 102.249 114.865C100.564 113.176 99.6172 110.888 99.6172 108.503C99.6172 106.117 100.564 103.829 102.249 102.141Z"/>
</mask>
<path d="M111.983 41.3571C112.973 41.3571 113.922 40.9638 114.622 40.2638C115.322 39.5638 115.715 38.6143 115.715 37.6244V24.1244C115.715 23.1344 115.322 22.1849 114.622 21.4849C113.922 20.7849 112.973 20.3916 111.983 20.3916C110.993 20.3916 110.043 20.7849 109.343 21.4849C108.643 22.1849 108.25 23.1344 108.25 24.1244V37.6244C108.25 39.6899 109.924 41.3571 111.983 41.3571ZM37.7328 101.392H24.2328C23.2428 101.392 22.2933 101.785 21.5933 102.485C20.8933 103.185 20.5 104.134 20.5 105.124C20.5 106.114 20.8933 107.064 21.5933 107.764C22.2933 108.464 23.2428 108.857 24.2328 108.857H37.7328C38.2229 108.857 38.7083 108.761 39.1612 108.573C39.6141 108.385 40.0256 108.11 40.3722 107.764C40.7188 107.417 40.9938 107.006 41.1814 106.553C41.3689 106.1 41.4655 105.615 41.4655 105.124C41.4655 104.634 41.3689 104.149 41.1814 103.696C40.9938 103.243 40.7188 102.832 40.3722 102.485C40.0256 102.138 39.6141 101.863 39.1612 101.676C38.7083 101.488 38.2229 101.392 37.7328 101.392ZM175.75 105.124C175.75 107.19 177.424 108.857 179.483 108.857H192.983C193.473 108.857 193.958 108.761 194.411 108.573C194.864 108.385 195.276 108.11 195.622 107.764C195.969 107.417 196.244 107.006 196.431 106.553C196.619 106.1 196.715 105.615 196.715 105.124C196.715 104.634 196.619 104.149 196.431 103.696C196.244 103.243 195.969 102.832 195.622 102.485C195.276 102.138 194.864 101.863 194.411 101.676C193.958 101.488 193.473 101.392 192.983 101.392H179.483C178.493 101.392 177.543 101.785 176.843 102.485C176.143 103.185 175.75 104.134 175.75 105.124ZM58.489 68.8634C59.2273 68.8652 59.9494 68.6476 60.5639 68.2383C61.1783 67.829 61.6573 67.2464 61.94 66.5645C62.2228 65.8825 62.2966 65.1319 62.1521 64.4079C62.0075 63.6839 61.6512 63.0192 61.1283 62.4981L50.497 51.8601C50.1509 51.514 49.7399 51.2394 49.2877 51.052C48.8354 50.8647 48.3507 50.7683 47.8611 50.7683C47.3716 50.7683 46.8869 50.8647 46.4346 51.052C45.9823 51.2394 45.5714 51.514 45.2253 51.8601C44.8791 52.2063 44.6045 52.6172 44.4172 53.0695C44.2299 53.5217 44.1334 54.0064 44.1334 54.496C44.1334 54.9855 44.2299 55.4702 44.4172 55.9225C44.6045 56.3748 44.8791 56.7857 45.2253 57.1319L55.8565 67.7631C56.2011 68.111 56.611 68.3874 57.0628 68.5762C57.5146 68.765 57.9993 68.8626 58.489 68.8634ZM161.872 142.985C161.173 142.286 160.225 141.893 159.236 141.893C158.247 141.893 157.299 142.286 156.6 142.985C155.901 143.684 155.508 144.632 155.508 145.621C155.508 146.61 155.901 147.558 156.6 148.257L166.725 158.382C167.071 158.731 167.482 159.008 167.935 159.197C168.388 159.386 168.874 159.483 169.365 159.483C169.855 159.483 170.341 159.386 170.794 159.197C171.247 159.008 171.659 158.731 172.004 158.382C172.352 158.037 172.628 157.626 172.816 157.174C173.005 156.721 173.102 156.236 173.102 155.746C173.102 155.256 173.005 154.771 172.816 154.318C172.628 153.866 172.352 153.455 172.004 153.11L161.872 142.985ZM168.622 53.7636C168.968 53.4174 169.243 53.0065 169.43 52.5543C169.617 52.102 169.714 51.6173 169.714 51.1277C169.714 50.6382 169.617 50.1535 169.43 49.7012C169.243 49.2489 168.968 48.838 168.622 48.4919C168.276 48.1457 167.865 47.8711 167.413 47.6838C166.96 47.4965 166.476 47.4 165.986 47.4C165.497 47.4 165.012 47.4965 164.56 47.6838C164.107 47.8711 163.696 48.1457 163.35 48.4919L152.719 59.1231C152.373 59.4697 152.098 59.8811 151.911 60.3337C151.724 60.7864 151.628 61.2715 151.628 61.7614C151.628 62.2512 151.725 62.7362 151.913 63.1886C152.101 63.6411 152.376 64.0521 152.722 64.3982C153.069 64.7444 153.48 65.0189 153.933 65.206C154.386 65.3932 154.871 65.4894 155.361 65.4891C155.85 65.4887 156.335 65.3919 156.788 65.2042C157.24 65.0165 157.651 64.7414 157.997 64.3948L168.622 53.7636ZM58.7185 146.36L48.5935 156.485C48.2474 156.832 47.9729 157.243 47.7857 157.696C47.5985 158.148 47.5024 158.634 47.5027 159.123C47.503 159.613 47.5998 160.098 47.7875 160.551C47.9753 161.003 48.2503 161.414 48.5969 161.76C48.9435 162.106 49.3548 162.381 49.8075 162.568C50.2602 162.755 50.7453 162.851 51.2351 162.851C51.725 162.851 52.21 162.754 52.6624 162.566C53.1148 162.378 53.5259 162.103 53.872 161.757L63.997 151.632C64.3432 151.285 64.6176 150.874 64.8048 150.421C64.992 149.969 65.0881 149.483 65.0878 148.994C65.0875 148.504 64.9907 148.019 64.803 147.566C64.6152 147.114 64.3402 146.703 63.9936 146.357C63.647 146.011 63.2357 145.736 62.783 145.549C62.3303 145.362 61.8452 145.266 61.3554 145.266C60.8655 145.266 60.3805 145.363 59.9281 145.551C59.4757 145.738 59.0647 146.014 58.7185 146.36ZM132.233 162.499H84.9827C78.982 162.27 74.6215 166.624 74.6215 172.624V179.084C74.6215 185.146 79.171 189.904 84.9827 189.499H132.233C138.038 189.904 142.594 185.146 142.594 179.084V172.624C142.594 166.624 138.234 162.27 132.233 162.499ZM108.608 126.502C113.414 126.502 117.936 124.632 121.332 121.23C124.261 118.295 126.089 114.44 126.507 110.315C126.814 107.278 126.344 104.231 125.165 101.454C124.423 99.7063 124.59 97.6203 125.932 96.2779L141.534 80.6758C142.211 79.9991 142.591 79.0813 142.591 78.1243C142.591 77.1674 142.211 76.2495 141.534 75.5728C140.858 74.8961 139.94 74.516 138.983 74.516C138.026 74.516 137.108 74.8961 136.431 75.5728L120.777 91.2276C119.449 92.5552 117.39 92.7347 115.65 92.0289C109.088 89.3668 101.034 90.6135 95.884 95.7689C93.3729 98.2886 91.664 101.495 90.9727 104.985C90.2814 108.474 90.6387 112.091 91.9995 115.377C93.3603 118.664 95.6636 121.475 98.6192 123.454C101.575 125.434 105.05 126.494 108.608 126.502ZM102.249 102.141C103.944 100.44 106.205 99.5016 108.608 99.5016C111.011 99.5016 113.272 100.44 114.973 102.141C118.483 105.651 118.483 111.355 114.973 114.865C111.578 118.267 105.651 118.267 102.249 114.865C100.564 113.176 99.6172 110.888 99.6172 108.503C99.6172 106.117 100.564 103.829 102.249 102.141Z" fill="white" stroke="#B5B5C1" stroke-width="5" mask="url(#path-2-inside-1_2210_8437)"/>
<rect x="83" y="170" width="52" height="12" fill="#B5B5C1"/>
</g>
<defs>
<clipPath id="clip0_2210_8437">
<rect width="216" height="216" fill="white" transform="translate(0.5)"/>
</clipPath>
</defs>
</svg>
