<svg width="217" height="216" viewBox="0 0 217 216" fill="none" xmlns="http://www.w3.org/2000/svg">
<path d="M108.781 9C78.8504 9 59.4473 29.0897 36.5019 36.4131C27.1685 39.3982 22.5018 40.8808 20.6112 42.9803C18.7207 45.0699 18.1734 48.1445 17.0689 54.2739C5.22807 119.906 31.0989 180.583 92.7908 204.205C99.4077 206.742 102.721 208.006 108.811 208.006C114.9 208.006 118.224 206.733 124.851 204.195C186.533 180.583 212.374 119.906 200.533 54.2739C199.428 48.1445 198.871 45.0699 196.98 42.9704C195.09 40.8708 190.433 39.3882 181.1 36.4131C158.144 29.0897 138.711 9 108.781 9Z" stroke="white" stroke-width="2" stroke-linecap="round" stroke-linejoin="round"/>
<path d="M91.3873 91.5277C91.3873 90.9306 91.4669 87.4878 91.4868 83.1694C91.4868 79.2092 91.1485 75.4082 93.0391 71.9256C100.104 57.8558 120.402 59.2887 125.417 73.6171C126.283 75.9753 126.343 79.7067 126.313 83.1694C126.283 87.5774 126.373 91.5277 126.373 91.5277M92.253 92.3846C81.5066 92.3846 76.1335 100.146 74.9394 104.922C73.7454 109.698 73.7454 127.012 74.4618 134.176C76.8499 143.131 82.8201 146.833 88.6709 148.027C94.044 148.504 116.731 148.325 123.298 148.325C132.85 148.504 140.014 144.922 143 134.176C143.597 130.594 144.194 110.892 142.701 104.922C139.537 95.3696 131.656 92.3846 125.686 92.3846H92.253Z" stroke="white" stroke-width="2" stroke-linecap="round" stroke-linejoin="round"/>
</svg>
