<svg width="70" height="70" viewBox="0 0 70 70" fill="none" xmlns="http://www.w3.org/2000/svg">
<path d="M32.8125 13.8252C33.634 13.8252 34.3946 13.9787 35.1006 14.2812C35.8191 14.5892 36.4387 15.007 36.9658 15.5342C37.493 16.0613 37.9108 16.6809 38.2188 17.3994C38.5213 18.1054 38.6748 18.866 38.6748 19.6875C38.6748 20.6107 38.4813 21.4624 38.0967 22.252C37.713 23.0395 37.1563 23.7201 36.416 24.2959L36.0254 24.5996L36.1816 25.0693L49.4443 64.9248H46.3379L43.5586 56.6523L43.3984 56.1748H22.2266L22.0664 56.6523L19.2871 64.9248H16.1807L29.4434 25.0693L29.6006 24.5977L29.207 24.2939C28.4933 23.7433 27.9472 23.0759 27.5625 22.2861C27.2247 21.5928 27.0244 20.8412 26.9658 20.0254L26.9502 19.6719C26.9521 18.8563 27.1056 18.101 27.4062 17.3994C27.7142 16.6809 28.132 16.0613 28.6592 15.5342C29.1863 15.007 29.8059 14.5892 30.5244 14.2812C31.2304 13.9787 31.991 13.8252 32.8125 13.8252ZM26.4414 43.5273L23.502 52.2773L23.1914 53.2002H42.4336L42.123 52.2773L39.1836 43.5273L39.0234 43.0498H26.6016L26.4414 43.5273ZM32.1484 26.3701L27.876 39.1533L27.5684 40.0752H38.0566L37.749 39.1533L33.4766 26.3701L32.8125 24.3838L32.1484 26.3701ZM49.7402 3.79883C50.6459 4.72388 51.4647 5.71925 52.1953 6.78711C53.06 8.05093 53.8031 9.3807 54.4238 10.7773C55.04 12.1637 55.4911 13.6055 55.7773 15.1025C56.0658 16.6113 56.2209 18.1427 56.2432 19.6973C56.2425 21.2418 56.088 22.7633 55.7793 24.2627C55.4697 25.7666 55.0163 27.2148 54.4199 28.6064C53.8228 29.9997 53.0926 31.3265 52.2295 32.5879C51.4979 33.6571 50.6692 34.6535 49.7451 35.5801L47.6709 33.4355C49.3866 31.669 50.7232 29.6733 51.6738 27.4482C52.7141 25.0131 53.245 22.4257 53.2686 19.6934V19.6875C53.2686 16.9751 52.7487 14.3972 51.708 11.9609C50.7559 9.73236 49.4078 7.72488 47.6709 5.93848L49.7402 3.79883ZM17.9531 5.93848C16.2374 7.70501 14.9018 9.70165 13.9512 11.9268C12.9109 14.3619 12.38 16.9493 12.3564 19.6816V19.6875C12.3564 22.3999 12.8763 24.9778 13.917 27.4141C14.8689 29.6422 16.2167 31.6494 17.9531 33.4355L15.8838 35.5752C14.9785 34.6504 14.1601 33.6554 13.4297 32.5879C12.565 31.3241 11.8219 29.9943 11.2012 28.5977C10.585 27.2113 10.1339 25.7695 9.84766 24.2725C9.55984 22.7668 9.40457 21.2387 9.38184 19.6875C9.38184 18.1396 9.53639 16.6148 9.8457 15.1123C10.1553 13.6084 10.6087 12.1602 11.2051 10.7686C11.8022 9.37535 12.5324 8.04851 13.3955 6.78711C14.1271 5.71793 14.9548 4.72052 15.8789 3.79395L17.9531 5.93848ZM24.043 12.2334C23.1881 13.1564 22.5109 14.1936 22.0176 15.3447C21.4337 16.7072 21.1306 18.1535 21.1064 19.6768V19.6875C21.1064 21.2144 21.398 22.6642 21.9834 24.0303C22.478 25.1844 23.1654 26.2229 24.0381 27.1465L21.9727 29.2812C20.8179 28.0559 19.9181 26.6921 19.2705 25.1875C18.535 23.4786 18.1546 21.6472 18.1318 19.6875C18.1318 17.7513 18.5005 15.9313 19.2363 14.2217C19.885 12.7146 20.7956 11.3388 21.9727 10.0928L24.043 12.2334ZM43.6514 10.0928C44.8066 11.3184 45.7067 12.6824 46.3545 14.1875C47.045 15.7918 47.4229 17.5041 47.4854 19.3291L47.4932 19.6953C47.4922 21.6286 47.1235 23.446 46.3887 25.1533C45.7401 26.6604 44.8284 28.0352 43.6514 29.2812L41.5811 27.1406C42.4359 26.2176 43.1141 25.1814 43.6074 24.0303C44.1913 22.6678 44.4944 21.2215 44.5186 19.6982V19.6875C44.5186 18.1606 44.227 16.7108 43.6416 15.3447C43.1468 14.1902 42.459 13.1514 41.5859 12.2275L43.6514 10.0928ZM32.8125 16.7998C32.0276 16.7998 31.3386 17.095 30.7793 17.6543C30.22 18.2136 29.9248 18.9026 29.9248 19.6875C29.9248 20.4724 30.22 21.1614 30.7793 21.7207C31.3386 22.28 32.0276 22.5752 32.8125 22.5752C33.5974 22.5752 34.2864 22.28 34.8457 21.7207C35.405 21.1614 35.7002 20.4724 35.7002 19.6875C35.7002 18.9026 35.405 18.2136 34.8457 17.6543C34.2864 17.095 33.5974 16.7998 32.8125 16.7998Z" fill="#5E5E65" stroke="#E6EBEF" stroke-width="1.4"/>
</svg>
