<svg width="70" height="68" viewBox="0 0 70 68" fill="none" xmlns="http://www.w3.org/2000/svg">
<path d="M27.9999 56.6654H41.9999C53.6666 56.6654 58.3333 52.132 58.3333 40.7987V27.1987C58.3333 15.8654 53.6666 11.332 41.9999 11.332H27.9999C16.3333 11.332 11.6666 15.8654 11.6666 27.1987V40.7987C11.6666 52.132 16.3333 56.6654 27.9999 56.6654Z" stroke="white" stroke-width="1.6" stroke-linecap="round" stroke-linejoin="round"/>
<path d="M30.6249 48.1654H39.3749C46.6666 48.1654 49.5833 45.332 49.5833 38.2487V29.7487C49.5833 22.6654 46.6666 19.832 39.3749 19.832H30.6249C23.3333 19.832 20.4166 22.6654 20.4166 29.7487V38.2487C20.4166 45.332 23.3333 48.1654 30.6249 48.1654Z" stroke="white" stroke-width="1.6" stroke-linecap="round" stroke-linejoin="round"/>
<path d="M23.3626 11.3346V5.66797" stroke="white" stroke-width="1.6" stroke-linecap="round" stroke-linejoin="round"/>
<path d="M35 11.3346V5.66797" stroke="white" stroke-width="1.6" stroke-linecap="round" stroke-linejoin="round"/>
<path d="M46.6666 11.3346V5.66797" stroke="white" stroke-width="1.6" stroke-linecap="round" stroke-linejoin="round"/>
<path d="M58.3334 22.668H64.1667" stroke="white" stroke-width="1.6" stroke-linecap="round" stroke-linejoin="round"/>
<path d="M58.3333 34H64.1667" stroke="white" stroke-width="1.6" stroke-linecap="round" stroke-linejoin="round"/>
<path d="M58.3334 45.332H64.1667" stroke="white" stroke-width="1.6" stroke-linecap="round" stroke-linejoin="round"/>
<path d="M46.6666 56.668V62.3346" stroke="white" stroke-width="1.6" stroke-linecap="round" stroke-linejoin="round"/>
<path d="M35.0291 56.668V62.3346" stroke="white" stroke-width="1.6" stroke-linecap="round" stroke-linejoin="round"/>
<path d="M23.3626 56.668V62.3346" stroke="white" stroke-width="1.6" stroke-linecap="round" stroke-linejoin="round"/>
<path d="M5.8334 22.668H11.6667" stroke="white" stroke-width="1.6" stroke-linecap="round" stroke-linejoin="round"/>
<path d="M5.83334 34H11.6667" stroke="white" stroke-width="1.6" stroke-linecap="round" stroke-linejoin="round"/>
<path d="M5.8334 45.332H11.6667" stroke="white" stroke-width="1.6" stroke-linecap="round" stroke-linejoin="round"/>
<path d="M35.0001 27.4844L32.2585 32.131C31.646 33.151 32.1418 34.001 33.3668 34.001H36.6335C37.8585 34.001 38.3543 34.851 37.7418 35.871L35.0001 40.5177" stroke="white" stroke-width="1.6" stroke-linecap="round" stroke-linejoin="round"/>
</svg>
