<svg width="68" height="68" viewBox="0 0 68 68" fill="none" xmlns="http://www.w3.org/2000/svg">
<path d="M34.0003 3.54102C32.0637 3.56227 30.1328 3.76768 28.2345 4.15585C28.4286 5.04268 28.4215 5.96175 28.2137 6.84548C28.0059 7.7292 27.6027 8.55512 27.0337 9.26249C26.4646 9.96986 25.7443 10.5407 24.9256 10.933C24.1069 11.3254 23.2107 11.5292 22.3029 11.5296C21.283 11.5195 20.282 11.2528 19.3923 10.7542C18.5025 10.2556 17.7525 9.54105 17.2114 8.67643C13.826 10.9234 10.9244 13.825 8.67741 17.2104C10.4341 18.3098 11.5107 20.2279 11.5306 22.3005C11.5298 23.9119 10.8892 25.457 9.74952 26.5961C8.60984 27.7353 7.06444 28.3752 5.45308 28.3752C5.02009 28.3525 4.59077 28.2836 4.17241 28.1698C3.77528 30.0882 3.56416 32.0404 3.54199 33.9994C3.56504 35.9582 3.77615 37.9104 4.17241 39.8289C4.59077 39.7151 5.02009 39.6462 5.45308 39.6235C7.06419 39.6235 8.60938 40.2632 9.74902 41.4021C10.8886 42.5409 11.5294 44.0857 11.5306 45.6968C11.5204 46.7167 11.2538 47.7176 10.7552 48.6074C10.2566 49.4972 9.54203 50.2472 8.67741 50.7883C10.9242 54.1742 13.8259 57.0763 17.2114 59.3237C17.7522 58.459 18.5019 57.7443 19.3914 57.2455C20.2809 56.7466 21.2817 56.4796 22.3015 56.4691C23.9129 56.4699 25.458 57.1105 26.5971 58.2502C27.7362 59.3898 28.3762 60.9352 28.3762 62.5466C28.3535 62.9796 28.2846 63.4089 28.1707 63.8273C30.0889 64.2239 32.0411 64.4364 34.0003 64.4577C35.9593 64.4355 37.9115 64.2244 39.8299 63.8273C39.7161 63.4089 39.6472 62.9796 39.6245 62.5466C39.6245 60.9355 40.2642 59.3903 41.403 58.2507C42.5419 57.111 44.0866 56.4702 45.6977 56.4691C46.7178 56.4794 47.7188 56.7463 48.6086 57.2451C49.4984 57.744 50.2483 58.4588 50.7892 59.3237C54.1753 57.0765 57.0774 54.1743 59.3247 50.7883C58.46 50.2475 57.7453 49.4978 57.2464 48.6083C56.7476 47.7188 56.4806 46.718 56.4701 45.6982C56.4708 44.0868 57.1115 42.5417 58.2511 41.4026C59.3908 40.2634 60.9362 39.6235 62.5476 39.6235C62.982 39.6462 63.4089 39.7147 63.8282 39.8289C64.2249 37.9108 64.4374 35.9586 64.4587 33.9994C64.4556 32.0399 64.2635 30.0853 63.8849 28.1627C63.4484 28.283 62.9999 28.3543 62.5476 28.3752C60.9365 28.3752 59.3913 27.7355 58.2516 26.5966C57.112 25.4578 56.4712 23.9131 56.4701 22.3019C56.4814 21.271 56.7548 20.2599 57.2646 19.3637C57.7744 18.4676 58.5038 17.7159 59.3842 17.1793C57.132 13.7804 54.2204 10.8682 50.8218 8.61552C50.2852 9.49588 49.5335 10.2253 48.6374 10.735C47.7412 11.2448 46.7301 11.5183 45.6992 11.5296C44.0878 11.5288 42.5427 10.8882 41.4036 9.74854C40.2644 8.60887 39.6245 7.06346 39.6245 5.4521C39.6454 4.99981 39.7167 4.55126 39.837 4.11477C37.9144 3.73621 35.9598 3.54407 34.0003 3.54102Z" stroke="white" stroke-width="0.856693" stroke-linecap="round" stroke-linejoin="round"/>
<path d="M48.5283 22.5337L42.4395 28.6225C42.3442 28.7182 42.2309 28.7941 42.1062 28.8459C41.9815 28.8977 41.8478 28.9244 41.7127 28.9244C41.5777 28.9244 41.444 28.8977 41.3193 28.8459C41.1945 28.7941 41.0813 28.7182 40.986 28.6225L39.3682 27.0047C39.2725 26.9094 39.1965 26.7961 39.1447 26.6714C39.0929 26.5467 39.0662 26.413 39.0662 26.2779C39.0662 26.1429 39.0929 26.0092 39.1447 25.8844C39.1965 25.7597 39.2725 25.6465 39.3682 25.5512L45.4371 19.4822C43.6565 18.3899 41.5606 17.9275 39.4856 18.169C37.4107 18.4104 35.477 19.3419 33.9947 20.8138C32.7573 22.0549 31.8947 23.6196 31.5061 25.3286C31.1175 27.0375 31.2185 28.8214 31.7975 30.4755L19.3167 42.9563C17.7073 44.5657 17.6861 47.1369 19.2699 48.7222C20.8537 50.3046 23.425 50.2833 25.0357 48.6726L37.5137 36.1946C39.1683 36.7742 40.9527 36.8755 42.6622 36.4868C44.3717 36.0982 45.9369 35.2353 47.1782 33.9973C48.6584 32.5161 49.5967 30.5795 49.8418 28.4999C50.087 26.4202 49.6248 24.3186 48.5297 22.5337" stroke="white" stroke-width="0.856693" stroke-linecap="round" stroke-linejoin="round"/>
</svg>
