<svg width="44" height="58" viewBox="0 0 44 58" fill="none" xmlns="http://www.w3.org/2000/svg">
<path d="M38.2041 0.0078125C41.4327 0.169962 44.001 2.80977 44.001 6.04199L43.9922 6.35254C43.8566 8.99639 42.0013 11.19 39.5107 11.8662C39.519 12.2004 39.528 12.7253 39.5156 13.2812C39.4928 14.3091 39.4075 15.689 39.1553 17.2207C38.5728 20.7579 35.6669 25.1174 28.459 26.834C24.1272 27.8655 22.1808 27.8708 20.4287 27.9248C18.8642 27.973 17.4371 28.0548 13.9141 29.2158C10.6506 30.2913 9.13311 32.1142 8.38672 33.7129C7.61501 35.3662 7.61133 36.9033 7.61133 37.458H7.5293L7.50293 46.0049L7.1416 46.0029C10.026 46.4873 12.2227 48.9695 12.2227 51.959L12.2139 52.2695C12.05 55.4615 9.38067 57.9999 6.11133 58L5.79688 57.9922C2.67215 57.8357 0.166431 55.3587 0.0078125 52.2695L0 51.959C0 48.9567 2.21549 46.4662 5.11816 45.9971L4.50293 45.9951L4.60938 11.8984C2.05826 11.2612 0.145528 9.03881 0.0078125 6.35254L0 6.04199C0 2.70527 2.73625 0 6.11133 0L6.42578 0.0078125C9.65462 0.169721 12.2227 2.80961 12.2227 6.04199L12.2139 6.35254C12.0761 9.04002 10.1621 11.2633 7.60938 11.8994L7.55371 29.668C8.79737 28.3499 10.5441 27.1685 12.9756 26.3672C16.7852 25.1118 18.4984 24.9834 20.3369 24.9268C21.9877 24.8759 23.7091 24.8815 27.7637 23.916C33.898 22.4552 35.8257 18.9777 36.1953 16.7334C36.553 14.5613 36.5334 12.7472 36.5107 11.9268C33.8982 11.3313 31.9261 9.0819 31.7861 6.35254L31.7783 6.04199C31.7783 2.70527 34.5146 0 37.8896 0L38.2041 0.0078125ZM6.11133 48.917C4.36069 48.917 3 50.3114 3 51.959C3.00045 53.6063 4.36098 55 6.11133 55C7.86157 54.9999 9.22221 53.6062 9.22266 51.959C9.22266 50.3114 7.86186 48.9171 6.11133 48.917ZM6.11133 3C4.36069 3 3 4.39436 3 6.04199C3.00018 7.68948 4.36081 9.08301 6.11133 9.08301C7.86174 9.08289 9.22248 7.68942 9.22266 6.04199C9.22266 4.39443 7.86186 3.00012 6.11133 3ZM37.8896 3C36.139 3 34.7783 4.39436 34.7783 6.04199C34.7785 7.68948 36.1391 9.08301 37.8896 9.08301C39.6398 9.08263 41.0008 7.68926 41.001 6.04199C41.001 4.39458 39.6399 3.00037 37.8896 3Z" fill="white"/>
</svg>
