<svg width="68" height="68" viewBox="0 0 68 68" fill="none" xmlns="http://www.w3.org/2000/svg">
<path d="M34.0567 8.24414C24.6783 8.24414 17.0567 15.8658 17.0567 25.2441V33.4325C17.0567 35.1608 16.32 37.7958 15.4417 39.2691L12.1833 44.6808C10.1717 48.0241 11.56 51.7358 15.2433 52.9825C27.455 57.0625 40.63 57.0625 52.8417 52.9825C56.27 51.8491 57.7717 47.7975 55.9017 44.6808L52.6433 39.2691C51.7933 37.7958 51.0567 35.1608 51.0567 33.4325V25.2441C51.0567 15.8941 43.4067 8.24414 34.0567 8.24414Z" stroke="white" stroke-width="1.6" stroke-miterlimit="10" stroke-linecap="round"/>
<path d="M39.2983 9.06609C38.4199 8.81109 37.5133 8.61276 36.5783 8.49943C33.8583 8.15943 31.2516 8.35776 28.8149 9.06609C29.6366 6.96943 31.6766 5.49609 34.0566 5.49609C36.4366 5.49609 38.4766 6.96943 39.2983 9.06609Z" stroke="white" stroke-width="1.6" stroke-miterlimit="10" stroke-linecap="round" stroke-linejoin="round"/>
<path d="M42.2926 55.5605C42.2926 59.2093 38.5609 62.1947 34 62.1947C31.7333 62.1947 29.6325 61.4428 28.1398 60.2487C26.6471 59.0545 25.7073 57.3739 25.7073 55.5605" stroke="white" stroke-width="1.6" stroke-miterlimit="10"/>
</svg>
