<svg width="127" height="127" viewBox="0 0 127 127" fill="none" xmlns="http://www.w3.org/2000/svg">
<path d="M92.2139 56.7083C92.2139 54.7418 92.2139 53.7585 92.5095 52.8832C93.3677 50.337 95.6355 49.3537 97.9089 48.3193C100.455 47.1541 101.728 46.5744 102.996 46.4721C104.428 46.3584 105.866 46.6653 107.094 47.353C108.719 48.2624 109.856 50.0016 111.015 51.4112C116.375 57.9246 119.058 61.1813 120.035 64.7677C120.831 67.6664 120.831 70.7014 120.035 73.5944C118.609 78.8347 114.09 83.2225 110.743 87.292C109.032 89.3665 108.174 90.4066 107.094 91.0148C105.845 91.7073 104.419 92.0139 102.996 91.8957C101.728 91.7934 100.455 91.2137 97.9032 90.0486C95.6298 89.0141 93.3677 88.0309 92.5095 85.4846C92.2139 84.6093 92.2139 83.626 92.2139 81.6595V56.7083ZM35.3775 56.7083C35.3775 54.2303 35.3093 52.0079 33.3086 50.2687C32.5811 49.6379 31.6149 49.2002 29.6882 48.3193C27.1362 47.1598 25.8631 46.5744 24.5956 46.4721C20.8046 46.1652 18.7642 48.7569 16.5817 51.4168C11.2163 57.9246 8.53365 61.1813 7.55038 64.7734C6.75925 67.6625 6.75925 70.7111 7.55038 73.6001C8.98266 78.8347 13.5068 83.2282 16.8488 87.292C18.9575 89.8496 20.9751 92.1856 24.5956 91.8957C25.8631 91.7934 27.1362 91.2137 29.6882 90.0486C31.6206 89.1733 32.5811 88.7299 33.3086 88.0991C35.3093 86.3599 35.3775 84.1376 35.3775 81.6652V56.7083Z" stroke="white" stroke-width="1.17593" stroke-linecap="round" stroke-linejoin="round"/>
<path d="M24.0117 46.4495C24.0117 27.6139 41.8243 12.3477 63.7972 12.3477C85.7702 12.3477 103.583 27.6139 103.583 46.4495M103.583 91.9186V96.4656C103.583 106.509 93.409 114.653 80.8481 114.653H69.4809" stroke="white" stroke-width="1.17593" stroke-linecap="round" stroke-linejoin="round"/>
</svg>
