<svg width="68" height="68" viewBox="0 0 68 68" fill="none" xmlns="http://www.w3.org/2000/svg">
<path d="M8.88173 59.1183C10.1622 60.3987 11.9178 61.1676 14.96 61.5762C18.0748 61.9939 22.1734 62 27.9459 62H40.054C45.8266 62 49.9282 61.9939 53.037 61.5762C56.0822 61.1676 57.8378 60.3987 59.1213 59.1213M59.1183 59.1183C60.3987 57.8378 61.1676 56.0822 61.5762 53.04C61.9939 49.9282 62 45.8266 62 40.0541V38.7312C62 33.219 61.9546 31.1455 61.1494 29.3353C60.3442 27.5282 58.8307 26.1055 54.7351 22.4186L42.7511 11.6333C39.2095 8.44584 37.8534 7.27135 36.243 6.65384M36.24 6.65384C34.6326 6.03632 32.8255 6 28.0368 6C22.2339 6 18.1111 6.00605 14.9842 6.42378C11.9209 6.83243 10.1622 7.6013 8.8787 8.8787M8.8787 59.1213C7.6013 57.8378 6.83243 56.0822 6.42378 53.037C6.00605 49.9282 6 45.8266 6 40.0541V27.9459C6 22.1734 6.00605 18.0748 6.42378 14.96C6.83243 11.9178 7.6013 10.1622 8.88173 8.88173" stroke="white" stroke-width="1.6"/>
<path d="M36.833 7.08594V14.1693C36.833 20.8474 36.833 24.1879 38.907 26.2619C40.981 28.3359 44.3215 28.3359 50.9997 28.3359H60.333" stroke="white" stroke-width="1.6"/>
<path d="M25 52C29.9706 52 34 47.9706 34 43C34 38.0294 29.9706 34 25 34C20.0294 34 16 38.0294 16 43C16 47.9706 20.0294 52 25 52Z" stroke="white" stroke-width="1.6" stroke-miterlimit="10" stroke-linecap="round" stroke-linejoin="round"/>
<path d="M26 40V42.0667C26 42.8444 25.568 43.5778 24.824 43.9778L23 45" stroke="white" stroke-width="1.6" stroke-miterlimit="10" stroke-linecap="round" stroke-linejoin="round"/>
</svg>
