<svg width="40" height="40" viewBox="0 0 40 40" fill="none" xmlns="http://www.w3.org/2000/svg">
<path d="M33.2934 28.4374C33.2934 28.9174 33.1867 29.4107 32.9601 29.8907C32.7334 30.3707 32.4401 30.8241 32.0534 31.2507C31.4001 31.9707 30.6801 32.4907 29.8667 32.8241C29.0667 33.1574 28.2001 33.3307 27.2667 33.3307C25.9067 33.3307 24.4534 33.0107 22.9201 32.3574C21.3867 31.7041 19.8534 30.8241 18.3334 29.7174C16.8001 28.5974 15.3467 27.3574 13.9601 25.9841C12.5867 24.5974 11.3467 23.1441 10.2401 21.6241C9.14675 20.1041 8.26675 18.5841 7.62675 17.0774C6.98675 15.5574 6.66675 14.1041 6.66675 12.7174C6.66675 11.8107 6.82675 10.9441 7.14675 10.1441C7.46675 9.33073 7.97341 8.58406 8.68008 7.9174C9.53341 7.0774 10.4667 6.66406 11.4534 6.66406C11.8267 6.66406 12.2001 6.74406 12.5334 6.90406C12.8801 7.06406 13.1867 7.30406 13.4267 7.65073L16.5201 12.0107C16.7601 12.3441 16.9334 12.6507 17.0534 12.9441C17.1734 13.2241 17.2401 13.5041 17.2401 13.7574C17.2401 14.0774 17.1467 14.3974 16.9601 14.7041C16.7867 15.0107 16.5334 15.3307 16.2134 15.6507L15.2001 16.7041C15.0534 16.8507 14.9867 17.0241 14.9867 17.2374C14.9867 17.3441 15.0001 17.4374 15.0267 17.5441C15.0667 17.6507 15.1067 17.7307 15.1334 17.8107C15.3734 18.2507 15.7867 18.8241 16.3734 19.5174C16.9734 20.2107 17.6134 20.9174 18.3067 21.6241C19.0267 22.3307 19.7201 22.9841 20.4267 23.5841C21.1201 24.1707 21.6934 24.5707 22.1467 24.8107C22.2134 24.8374 22.2934 24.8774 22.3867 24.9174C22.4934 24.9574 22.6001 24.9707 22.7201 24.9707C22.9467 24.9707 23.1201 24.8907 23.2667 24.7441L24.2801 23.7441C24.6134 23.4107 24.9334 23.1574 25.2401 22.9974C25.5467 22.8107 25.8534 22.7174 26.1867 22.7174C26.4401 22.7174 26.7067 22.7707 27.0001 22.8907C27.2934 23.0107 27.6001 23.1841 27.9334 23.4107L32.3467 26.5441C32.6934 26.7841 32.9334 27.0641 33.0801 27.3974C33.2134 27.7307 33.2934 28.0641 33.2934 28.4374Z" stroke="#5E5E65" stroke-width="1.5" stroke-miterlimit="10"/>
</svg>
