<svg width="68" height="68" viewBox="0 0 68 68" fill="none" xmlns="http://www.w3.org/2000/svg">
<path d="M42.5013 39.666H34.0013M34.0013 39.666H25.5013M34.0013 39.666V31.166M34.0013 39.666V48.166M62.3346 34.5774V38.8869C62.3346 49.9369 62.3346 55.4647 59.014 58.8987C55.6933 62.3327 50.3525 62.3327 39.668 62.3327H28.3346C17.6501 62.3327 12.3065 62.3327 8.98864 58.8987C5.6708 55.4647 5.66797 49.9397 5.66797 38.8869V34.5774C5.66797 28.0919 5.66797 24.8505 7.1413 22.1645C8.60897 19.4757 11.2978 17.8097 16.6726 14.472L22.3393 10.9558C28.0201 7.42835 30.862 5.66602 34.0013 5.66602C37.1406 5.66602 39.9796 7.42835 45.6633 10.9558L51.33 14.472C56.7048 17.8097 59.3936 19.4757 60.8641 22.1645" stroke="white" stroke-width="1.6" stroke-linecap="round"/>
</svg>
