<svg width="70" height="70" viewBox="0 0 70 70" fill="none" xmlns="http://www.w3.org/2000/svg">
<g clip-path="url(#clip0_2223_20754)">
<path d="M34.999 0.225586C54.173 0.225586 69.7763 15.8239 69.7764 35C69.7764 54.1762 54.1731 69.7744 34.999 69.7744C15.8252 69.7742 0.222656 54.176 0.222656 35C0.222741 15.8241 15.8252 0.225799 34.999 0.225586ZM34.999 1.96191C16.7823 1.96213 1.96395 16.7833 1.96387 35C1.96387 53.2168 16.7822 68.0379 34.999 68.0381C53.216 68.0381 68.0352 53.2169 68.0352 35C68.0351 16.7832 53.2159 1.96191 34.999 1.96191Z" fill="#5E5E65" stroke="#E6EBEF" stroke-width="0.6"/>
<mask id="path-2-inside-1_2223_20754" fill="white">
<path d="M36.1277 13.4038C36.4485 13.4038 36.7562 13.2763 36.983 13.0494C37.2099 12.8226 37.3373 12.5149 37.3373 12.1941V7.81906C37.3373 7.49823 37.2099 7.19054 36.983 6.96368C36.7562 6.73682 36.4485 6.60938 36.1277 6.60938C35.8068 6.60938 35.4991 6.73682 35.2723 6.96368C35.0454 7.19054 34.918 7.49823 34.918 7.81906V12.1941C34.918 12.8634 35.4605 13.4038 36.1277 13.4038ZM12.0652 32.8594H7.69016C7.36933 32.8594 7.06164 32.9868 6.83478 33.2137C6.60792 33.4405 6.48047 33.7482 6.48047 34.0691C6.48047 34.3899 6.60792 34.6976 6.83478 34.9244C7.06164 35.1513 7.36933 35.2787 7.69016 35.2787H12.0652C12.224 35.2787 12.3813 35.2475 12.5281 35.1867C12.6749 35.1259 12.8082 35.0368 12.9205 34.9244C13.0329 34.8121 13.122 34.6788 13.1828 34.532C13.2436 34.3852 13.2748 34.2279 13.2748 34.0691C13.2748 33.9102 13.2436 33.7529 13.1828 33.6061C13.122 33.4594 13.0329 33.326 12.9205 33.2137C12.8082 33.1014 12.6749 33.0123 12.5281 32.9515C12.3813 32.8907 12.224 32.8594 12.0652 32.8594ZM56.793 34.0691C56.793 34.7384 57.3355 35.2787 58.0027 35.2787H62.3777C62.5365 35.2787 62.6938 35.2475 62.8406 35.1867C62.9874 35.1259 63.1207 35.0368 63.233 34.9244C63.3454 34.8121 63.4345 34.6788 63.4953 34.532C63.5561 34.3852 63.5873 34.2279 63.5873 34.0691C63.5873 33.9102 63.5561 33.7529 63.4953 33.6061C63.4345 33.4594 63.3454 33.326 63.233 33.2137C63.1207 33.1014 62.9874 33.0123 62.8406 32.9515C62.6938 32.8907 62.5365 32.8594 62.3777 32.8594H58.0027C57.6818 32.8594 57.3741 32.9868 57.1473 33.2137C56.9204 33.4405 56.793 33.7482 56.793 34.0691ZM18.7917 22.3178C19.031 22.3184 19.265 22.2479 19.4641 22.1153C19.6632 21.9826 19.8185 21.7938 19.9101 21.5728C20.0017 21.3518 20.0257 21.1085 19.9788 20.8739C19.932 20.6393 19.8165 20.4239 19.647 20.255L16.2017 16.8075C16.0895 16.6953 15.9564 16.6063 15.8098 16.5456C15.6632 16.4849 15.5061 16.4537 15.3475 16.4537C15.1889 16.4537 15.0318 16.4849 14.8852 16.5456C14.7386 16.6063 14.6055 16.6953 14.4933 16.8075C14.3811 16.9197 14.2921 17.0529 14.2314 17.1994C14.1707 17.346 14.1395 17.5031 14.1395 17.6617C14.1395 17.8204 14.1707 17.9775 14.2314 18.124C14.2921 18.2706 14.3811 18.4038 14.4933 18.5159L17.9386 21.9613C18.0503 22.074 18.1831 22.1636 18.3295 22.2248C18.476 22.286 18.633 22.3176 18.7917 22.3178ZM52.2955 46.3387C52.0689 46.1122 51.7616 45.9849 51.4413 45.9849C51.1209 45.9849 50.8136 46.1122 50.587 46.3387C50.3605 46.5653 50.2332 46.8726 50.2332 47.193C50.2332 47.5134 50.3605 47.8206 50.587 48.0472L53.8683 51.3284C53.9802 51.4415 54.1134 51.5313 54.2602 51.5926C54.407 51.6539 54.5645 51.6854 54.7236 51.6854C54.8827 51.6854 55.0402 51.6539 55.187 51.5926C55.3338 51.5313 55.467 51.4415 55.5789 51.3284C55.6917 51.2166 55.7812 51.0835 55.8423 50.9369C55.9033 50.7903 55.9348 50.633 55.9348 50.4742C55.9348 50.3154 55.9033 50.1581 55.8423 50.0115C55.7812 49.8649 55.6917 49.7318 55.5789 49.62L52.2955 46.3387ZM54.483 17.4244C54.5951 17.3122 54.6841 17.179 54.7448 17.0325C54.8056 16.8859 54.8368 16.7288 54.8368 16.5702C54.8368 16.4115 54.8056 16.2544 54.7448 16.1079C54.6841 15.9613 54.5951 15.8281 54.483 15.7159C54.3708 15.6038 54.2376 15.5148 54.0911 15.4541C53.9445 15.3934 53.7874 15.3621 53.6288 15.3621C53.4701 15.3621 53.313 15.3934 53.1665 15.4541C53.0199 15.5148 52.8867 15.6038 52.7745 15.7159L49.3292 19.1613C49.217 19.2736 49.1281 19.4069 49.0674 19.5536C49.0068 19.7003 48.9756 19.8575 48.9757 20.0162C48.9758 20.175 49.0072 20.3322 49.068 20.4788C49.1289 20.6254 49.218 20.7586 49.3303 20.8708C49.4426 20.983 49.576 21.0719 49.7227 21.1326C49.8694 21.1932 50.0266 21.2244 50.1853 21.2243C50.3441 21.2242 50.5012 21.1928 50.6478 21.132C50.7945 21.0711 50.9277 20.982 51.0398 20.8697L54.483 17.4244ZM18.8661 47.4325L15.5848 50.7137C15.4727 50.8261 15.3837 50.9594 15.3231 51.1061C15.2624 51.2528 15.2312 51.41 15.2313 51.5687C15.2314 51.7275 15.2628 51.8847 15.3236 52.0313C15.3845 52.1779 15.4736 52.3111 15.5859 52.4233C15.6983 52.5355 15.8316 52.6244 15.9783 52.6851C16.125 52.7457 16.2822 52.7769 16.4409 52.7768C16.5997 52.7767 16.7568 52.7453 16.9035 52.6845C17.0501 52.6236 17.1833 52.5345 17.2955 52.4222L20.5767 49.1409C20.6889 49.0286 20.7779 48.8953 20.8385 48.7486C20.8992 48.6019 20.9303 48.4447 20.9302 48.2859C20.9301 48.1272 20.8988 47.97 20.8379 47.8234C20.7771 47.6768 20.6879 47.5436 20.5756 47.4314C20.4633 47.3192 20.33 47.2303 20.1833 47.1696C20.0366 47.109 19.8794 47.0778 19.7206 47.0779C19.5619 47.078 19.4047 47.1094 19.2581 47.1702C19.1115 47.2311 18.9783 47.3202 18.8661 47.4325ZM42.6902 52.6628H27.3777C25.433 52.5884 24.0198 53.9994 24.0198 55.9441V58.0375C24.0198 60.0019 25.4942 61.5441 27.3777 61.4128H42.6902C44.5714 61.5441 46.048 60.0019 46.048 58.0375V55.9441C46.048 53.9994 44.6348 52.5884 42.6902 52.6628ZM35.0339 40.9969C36.5914 40.9969 38.057 40.3909 39.1573 39.2884C40.1066 38.3374 40.699 37.0881 40.8345 35.7512C40.9342 34.767 40.7819 33.7797 40.3996 32.8795C40.1592 32.3132 40.2133 31.6372 40.6483 31.2021L45.7045 26.1459C45.9238 25.9266 46.047 25.6292 46.047 25.3191C46.047 25.0089 45.9238 24.7115 45.7045 24.4922C45.4852 24.2729 45.1878 24.1497 44.8777 24.1497C44.5675 24.1497 44.2701 24.2729 44.0508 24.4922L38.9775 29.5655C38.5472 29.9957 37.8799 30.0539 37.3161 29.8252C35.1895 28.9625 32.5793 29.3665 30.9105 31.0372C30.0967 31.8538 29.5429 32.893 29.3189 34.0239C29.0948 35.1548 29.2106 36.3266 29.6516 37.3918C30.0926 38.457 30.8391 39.3677 31.7969 40.0093C32.7547 40.6509 33.8811 40.9945 35.0339 40.9969ZM32.9733 33.1022C33.5223 32.5509 34.2552 32.2469 35.0339 32.2469C35.8127 32.2469 36.5455 32.5509 37.0967 33.1022C38.2342 34.2397 38.2342 36.0881 37.0967 37.2256C35.9964 38.3281 34.0758 38.3281 32.9733 37.2256C32.4271 36.6785 32.1203 35.937 32.1203 35.1639C32.1203 34.3908 32.4271 33.6493 32.9733 33.1022Z"/>
</mask>
<path d="M36.1277 13.4038C36.4485 13.4038 36.7562 13.2763 36.983 13.0494C37.2099 12.8226 37.3373 12.5149 37.3373 12.1941V7.81906C37.3373 7.49823 37.2099 7.19054 36.983 6.96368C36.7562 6.73682 36.4485 6.60938 36.1277 6.60938C35.8068 6.60938 35.4991 6.73682 35.2723 6.96368C35.0454 7.19054 34.918 7.49823 34.918 7.81906V12.1941C34.918 12.8634 35.4605 13.4038 36.1277 13.4038ZM12.0652 32.8594H7.69016C7.36933 32.8594 7.06164 32.9868 6.83478 33.2137C6.60792 33.4405 6.48047 33.7482 6.48047 34.0691C6.48047 34.3899 6.60792 34.6976 6.83478 34.9244C7.06164 35.1513 7.36933 35.2787 7.69016 35.2787H12.0652C12.224 35.2787 12.3813 35.2475 12.5281 35.1867C12.6749 35.1259 12.8082 35.0368 12.9205 34.9244C13.0329 34.8121 13.122 34.6788 13.1828 34.532C13.2436 34.3852 13.2748 34.2279 13.2748 34.0691C13.2748 33.9102 13.2436 33.7529 13.1828 33.6061C13.122 33.4594 13.0329 33.326 12.9205 33.2137C12.8082 33.1014 12.6749 33.0123 12.5281 32.9515C12.3813 32.8907 12.224 32.8594 12.0652 32.8594ZM56.793 34.0691C56.793 34.7384 57.3355 35.2787 58.0027 35.2787H62.3777C62.5365 35.2787 62.6938 35.2475 62.8406 35.1867C62.9874 35.1259 63.1207 35.0368 63.233 34.9244C63.3454 34.8121 63.4345 34.6788 63.4953 34.532C63.5561 34.3852 63.5873 34.2279 63.5873 34.0691C63.5873 33.9102 63.5561 33.7529 63.4953 33.6061C63.4345 33.4594 63.3454 33.326 63.233 33.2137C63.1207 33.1014 62.9874 33.0123 62.8406 32.9515C62.6938 32.8907 62.5365 32.8594 62.3777 32.8594H58.0027C57.6818 32.8594 57.3741 32.9868 57.1473 33.2137C56.9204 33.4405 56.793 33.7482 56.793 34.0691ZM18.7917 22.3178C19.031 22.3184 19.265 22.2479 19.4641 22.1153C19.6632 21.9826 19.8185 21.7938 19.9101 21.5728C20.0017 21.3518 20.0257 21.1085 19.9788 20.8739C19.932 20.6393 19.8165 20.4239 19.647 20.255L16.2017 16.8075C16.0895 16.6953 15.9564 16.6063 15.8098 16.5456C15.6632 16.4849 15.5061 16.4537 15.3475 16.4537C15.1889 16.4537 15.0318 16.4849 14.8852 16.5456C14.7386 16.6063 14.6055 16.6953 14.4933 16.8075C14.3811 16.9197 14.2921 17.0529 14.2314 17.1994C14.1707 17.346 14.1395 17.5031 14.1395 17.6617C14.1395 17.8204 14.1707 17.9775 14.2314 18.124C14.2921 18.2706 14.3811 18.4038 14.4933 18.5159L17.9386 21.9613C18.0503 22.074 18.1831 22.1636 18.3295 22.2248C18.476 22.286 18.633 22.3176 18.7917 22.3178ZM52.2955 46.3387C52.0689 46.1122 51.7616 45.9849 51.4413 45.9849C51.1209 45.9849 50.8136 46.1122 50.587 46.3387C50.3605 46.5653 50.2332 46.8726 50.2332 47.193C50.2332 47.5134 50.3605 47.8206 50.587 48.0472L53.8683 51.3284C53.9802 51.4415 54.1134 51.5313 54.2602 51.5926C54.407 51.6539 54.5645 51.6854 54.7236 51.6854C54.8827 51.6854 55.0402 51.6539 55.187 51.5926C55.3338 51.5313 55.467 51.4415 55.5789 51.3284C55.6917 51.2166 55.7812 51.0835 55.8423 50.9369C55.9033 50.7903 55.9348 50.633 55.9348 50.4742C55.9348 50.3154 55.9033 50.1581 55.8423 50.0115C55.7812 49.8649 55.6917 49.7318 55.5789 49.62L52.2955 46.3387ZM54.483 17.4244C54.5951 17.3122 54.6841 17.179 54.7448 17.0325C54.8056 16.8859 54.8368 16.7288 54.8368 16.5702C54.8368 16.4115 54.8056 16.2544 54.7448 16.1079C54.6841 15.9613 54.5951 15.8281 54.483 15.7159C54.3708 15.6038 54.2376 15.5148 54.0911 15.4541C53.9445 15.3934 53.7874 15.3621 53.6288 15.3621C53.4701 15.3621 53.313 15.3934 53.1665 15.4541C53.0199 15.5148 52.8867 15.6038 52.7745 15.7159L49.3292 19.1613C49.217 19.2736 49.1281 19.4069 49.0674 19.5536C49.0068 19.7003 48.9756 19.8575 48.9757 20.0162C48.9758 20.175 49.0072 20.3322 49.068 20.4788C49.1289 20.6254 49.218 20.7586 49.3303 20.8708C49.4426 20.983 49.576 21.0719 49.7227 21.1326C49.8694 21.1932 50.0266 21.2244 50.1853 21.2243C50.3441 21.2242 50.5012 21.1928 50.6478 21.132C50.7945 21.0711 50.9277 20.982 51.0398 20.8697L54.483 17.4244ZM18.8661 47.4325L15.5848 50.7137C15.4727 50.8261 15.3837 50.9594 15.3231 51.1061C15.2624 51.2528 15.2312 51.41 15.2313 51.5687C15.2314 51.7275 15.2628 51.8847 15.3236 52.0313C15.3845 52.1779 15.4736 52.3111 15.5859 52.4233C15.6983 52.5355 15.8316 52.6244 15.9783 52.6851C16.125 52.7457 16.2822 52.7769 16.4409 52.7768C16.5997 52.7767 16.7568 52.7453 16.9035 52.6845C17.0501 52.6236 17.1833 52.5345 17.2955 52.4222L20.5767 49.1409C20.6889 49.0286 20.7779 48.8953 20.8385 48.7486C20.8992 48.6019 20.9303 48.4447 20.9302 48.2859C20.9301 48.1272 20.8988 47.97 20.8379 47.8234C20.7771 47.6768 20.6879 47.5436 20.5756 47.4314C20.4633 47.3192 20.33 47.2303 20.1833 47.1696C20.0366 47.109 19.8794 47.0778 19.7206 47.0779C19.5619 47.078 19.4047 47.1094 19.2581 47.1702C19.1115 47.2311 18.9783 47.3202 18.8661 47.4325ZM42.6902 52.6628H27.3777C25.433 52.5884 24.0198 53.9994 24.0198 55.9441V58.0375C24.0198 60.0019 25.4942 61.5441 27.3777 61.4128H42.6902C44.5714 61.5441 46.048 60.0019 46.048 58.0375V55.9441C46.048 53.9994 44.6348 52.5884 42.6902 52.6628ZM35.0339 40.9969C36.5914 40.9969 38.057 40.3909 39.1573 39.2884C40.1066 38.3374 40.699 37.0881 40.8345 35.7512C40.9342 34.767 40.7819 33.7797 40.3996 32.8795C40.1592 32.3132 40.2133 31.6372 40.6483 31.2021L45.7045 26.1459C45.9238 25.9266 46.047 25.6292 46.047 25.3191C46.047 25.0089 45.9238 24.7115 45.7045 24.4922C45.4852 24.2729 45.1878 24.1497 44.8777 24.1497C44.5675 24.1497 44.2701 24.2729 44.0508 24.4922L38.9775 29.5655C38.5472 29.9957 37.8799 30.0539 37.3161 29.8252C35.1895 28.9625 32.5793 29.3665 30.9105 31.0372C30.0967 31.8538 29.5429 32.893 29.3189 34.0239C29.0948 35.1548 29.2106 36.3266 29.6516 37.3918C30.0926 38.457 30.8391 39.3677 31.7969 40.0093C32.7547 40.6509 33.8811 40.9945 35.0339 40.9969ZM32.9733 33.1022C33.5223 32.5509 34.2552 32.2469 35.0339 32.2469C35.8127 32.2469 36.5455 32.5509 37.0967 33.1022C38.2342 34.2397 38.2342 36.0881 37.0967 37.2256C35.9964 38.3281 34.0758 38.3281 32.9733 37.2256C32.4271 36.6785 32.1203 35.937 32.1203 35.1639C32.1203 34.3908 32.4271 33.6493 32.9733 33.1022Z" fill="#5E5E65" stroke="#E6EBEF" stroke-width="1.2" mask="url(#path-2-inside-1_2223_20754)"/>
<rect x="26.7363" y="55.0918" width="16.8519" height="3.88889" fill="#E6EBEF"/>
</g>
<defs>
<clipPath id="clip0_2223_20754">
<rect width="70" height="70" fill="white"/>
</clipPath>
</defs>
</svg>
