<svg width="40" height="40" viewBox="0 0 40 40" fill="none" xmlns="http://www.w3.org/2000/svg">
<path d="M35 9.00357V27.1086C35 28.5486 33.83 29.8986 32.39 30.0786L31.895 30.1386C28.625 30.5736 23.585 32.2386 20.705 33.8286C20.315 34.0536 19.67 34.0536 19.265 33.8286L19.205 33.7986C16.325 32.2236 11.3 30.5736 8.04504 30.1386L7.60999 30.0786C6.16999 29.8986 5 28.5486 5 27.1086V8.98856C5 7.20356 6.45496 5.85357 8.23996 6.00357C11.39 6.25857 16.16 7.84861 18.83 9.51361L19.205 9.73856C19.64 10.0086 20.36 10.0086 20.795 9.73856L21.05 9.57358C21.995 8.98858 23.195 8.40357 24.5 7.87857V13.9986L27.5 12.0036L30.5 13.9986V6.16864C30.905 6.09364 31.295 6.04859 31.655 6.01859H31.745C33.53 5.86859 35 7.20357 35 9.00357Z" stroke="#5E5E65" stroke-width="1.5" stroke-linecap="round" stroke-linejoin="round"/>
<path d="M20 10.2344V32.7344" stroke="#5E5E65" stroke-width="1.5" stroke-linecap="round" stroke-linejoin="round"/>
<path d="M30.5 6.17188V14.0018L27.5 12.0068L24.5 14.0018V7.88181C26.465 7.10181 28.655 6.47188 30.5 6.17188Z" stroke="#5E5E65" stroke-width="1.5" stroke-linecap="round" stroke-linejoin="round"/>
</svg>
