<svg width="68" height="68" viewBox="0 0 68 68" fill="none" xmlns="http://www.w3.org/2000/svg">
<path d="M50.2041 5.00781C53.4327 5.16996 56.001 7.80977 56.001 11.042L55.9922 11.3525C55.8566 13.9964 54.0013 16.19 51.5107 16.8662C51.519 17.2004 51.528 17.7253 51.5156 18.2812C51.4928 19.3091 51.4075 20.689 51.1553 22.2207C50.5728 25.7579 47.6669 30.1174 40.459 31.834C36.1272 32.8655 34.1808 32.8708 32.4287 32.9248C30.8642 32.973 29.4371 33.0548 25.9141 34.2158C22.6506 35.2913 21.1331 37.1142 20.3867 38.7129C19.615 40.3662 19.6113 41.9033 19.6113 42.458H19.5293L19.5029 51.0049L19.1416 51.0029C22.026 51.4873 24.2227 53.9695 24.2227 56.959L24.2139 57.2695C24.05 60.4615 21.3807 62.9999 18.1113 63L17.7969 62.9922C14.6722 62.8357 12.1664 60.3587 12.0078 57.2695L12 56.959C12 53.9567 14.2155 51.4662 17.1182 50.9971L16.5029 50.9951L16.6094 16.8984C14.0583 16.2612 12.1455 14.0388 12.0078 11.3525L12 11.042C12 7.70527 14.7363 5 18.1113 5L18.4258 5.00781C21.6546 5.16972 24.2227 7.80961 24.2227 11.042L24.2139 11.3525C24.0761 14.04 22.1621 16.2633 19.6094 16.8994L19.5537 34.668C20.7974 33.3499 22.5441 32.1685 24.9756 31.3672C28.7852 30.1118 30.4984 29.9834 32.3369 29.9268C33.9877 29.8759 35.7091 29.8815 39.7637 28.916C45.898 27.4552 47.8257 23.9777 48.1953 21.7334C48.553 19.5613 48.5334 17.7472 48.5107 16.9268C45.8982 16.3313 43.9261 14.0819 43.7861 11.3525L43.7783 11.042C43.7783 7.70527 46.5146 5 49.8896 5L50.2041 5.00781ZM18.1113 53.917C16.3607 53.917 15 55.3114 15 56.959C15.0004 58.6063 16.361 60 18.1113 60C19.8616 59.9999 21.2222 58.6062 21.2227 56.959C21.2227 55.3114 19.8619 53.9171 18.1113 53.917ZM18.1113 8C16.3607 8 15 9.39436 15 11.042C15.0002 12.6895 16.3608 14.083 18.1113 14.083C19.8617 14.0829 21.2225 12.6894 21.2227 11.042C21.2227 9.39443 19.8619 8.00012 18.1113 8ZM49.8896 8C48.139 8 46.7783 9.39436 46.7783 11.042C46.7785 12.6895 48.1391 14.083 49.8896 14.083C51.6398 14.0826 53.0008 12.6893 53.001 11.042C53.001 9.39458 51.6399 8.00037 49.8896 8Z" fill="white"/>
</svg>
