<svg width="70" height="68" viewBox="0 0 70 68" fill="none" xmlns="http://www.w3.org/2000/svg">
<path d="M28.0003 56.6654H42.0003C53.667 56.6654 58.3337 52.132 58.3337 40.7987V27.1987C58.3337 15.8654 53.667 11.332 42.0003 11.332H28.0003C16.3337 11.332 11.667 15.8654 11.667 27.1987V40.7987C11.667 52.132 16.3337 56.6654 28.0003 56.6654Z" stroke="#5E5E65" stroke-width="1.6" stroke-linecap="round" stroke-linejoin="round"/>
<path d="M30.6253 48.1654H39.3753C46.667 48.1654 49.5837 45.332 49.5837 38.2487V29.7487C49.5837 22.6654 46.667 19.832 39.3753 19.832H30.6253C23.3337 19.832 20.417 22.6654 20.417 29.7487V38.2487C20.417 45.332 23.3337 48.1654 30.6253 48.1654Z" stroke="#5E5E65" stroke-width="1.6" stroke-linecap="round" stroke-linejoin="round"/>
<path d="M23.3623 11.3346V5.66797" stroke="#5E5E65" stroke-width="1.6" stroke-linecap="round" stroke-linejoin="round"/>
<path d="M35 11.3346V5.66797" stroke="#5E5E65" stroke-width="1.6" stroke-linecap="round" stroke-linejoin="round"/>
<path d="M46.667 11.3346V5.66797" stroke="#5E5E65" stroke-width="1.6" stroke-linecap="round" stroke-linejoin="round"/>
<path d="M58.333 22.668H64.1663" stroke="#5E5E65" stroke-width="1.6" stroke-linecap="round" stroke-linejoin="round"/>
<path d="M58.333 34H64.1663" stroke="#5E5E65" stroke-width="1.6" stroke-linecap="round" stroke-linejoin="round"/>
<path d="M58.333 45.332H64.1663" stroke="#5E5E65" stroke-width="1.6" stroke-linecap="round" stroke-linejoin="round"/>
<path d="M46.667 56.668V62.3346" stroke="#5E5E65" stroke-width="1.6" stroke-linecap="round" stroke-linejoin="round"/>
<path d="M35.0293 56.668V62.3346" stroke="#5E5E65" stroke-width="1.6" stroke-linecap="round" stroke-linejoin="round"/>
<path d="M23.3623 56.668V62.3346" stroke="#5E5E65" stroke-width="1.6" stroke-linecap="round" stroke-linejoin="round"/>
<path d="M5.83301 22.668H11.6663" stroke="#5E5E65" stroke-width="1.6" stroke-linecap="round" stroke-linejoin="round"/>
<path d="M5.83301 34H11.6663" stroke="#5E5E65" stroke-width="1.6" stroke-linecap="round" stroke-linejoin="round"/>
<path d="M5.83301 45.332H11.6663" stroke="#5E5E65" stroke-width="1.6" stroke-linecap="round" stroke-linejoin="round"/>
<path d="M35.0003 27.4844L32.2586 32.131C31.6461 33.151 32.1419 34.001 33.3669 34.001H36.6336C37.8586 34.001 38.3544 34.851 37.7419 35.871L35.0003 40.5177" stroke="#5E5E65" stroke-width="1.6" stroke-linecap="round" stroke-linejoin="round"/>
</svg>
